<svg xmlns="http://www.w3.org/2000/svg" width="400" height="200" viewBox="0 0 400 200">
  <rect width="400" height="200" fill="#111827"/>
  <!-- Calendar base -->
  <rect x="148" y="48" width="88" height="84" rx="5" fill="#1e293b" stroke="#3b82f6" stroke-width="1.5"/>
  <!-- Calendar header -->
  <rect x="148" y="48" width="88" height="22" rx="5" fill="#2563eb"/>
  <rect x="148" y="60" width="88" height="10" fill="#2563eb"/>
  <!-- Header rings -->
  <rect x="168" y="42" width="5" height="14" rx="2" fill="#60a5fa"/>
  <rect x="211" y="42" width="5" height="14" rx="2" fill="#60a5fa"/>
  <!-- Calendar grid -->
  <rect x="156" y="78" width="10" height="8" rx="1" fill="#0f172a"/>
  <rect x="172" y="78" width="10" height="8" rx="1" fill="#0f172a"/>
  <rect x="188" y="78" width="10" height="8" rx="1" fill="#0f172a"/>
  <rect x="204" y="78" width="10" height="8" rx="1" fill="#0f172a"/>
  <rect x="156" y="92" width="10" height="8" rx="1" fill="#0f172a"/>
  <rect x="172" y="92" width="10" height="8" rx="1" fill="#22c55e" opacity="0.8"/>
  <rect x="188" y="92" width="10" height="8" rx="1" fill="#0f172a"/>
  <rect x="204" y="92" width="10" height="8" rx="1" fill="#22c55e" opacity="0.8"/>
  <rect x="156" y="106" width="10" height="8" rx="1" fill="#0f172a"/>
  <rect x="172" y="106" width="10" height="8" rx="1" fill="#0f172a"/>
  <rect x="188" y="106" width="10" height="8" rx="1" fill="#22c55e" opacity="0.8"/>
  <rect x="204" y="106" width="10" height="8" rx="1" fill="#0f172a"/>
  <!-- Discord notification bubble -->
  <rect x="218" y="100" width="42" height="28" rx="6" fill="#5865f2"/>
  <text x="239" y="119" text-anchor="middle" fill="white" font-family="Segoe UI, Arial" font-size="11" font-weight="bold">Discord</text>
  <polygon points="218,112 210,118 218,120" fill="#5865f2"/>
</svg>
